<!DOCTYPE svg PUBLIC "-//W3C//DTD SVG 1.1//EN" "http://www.w3.org/Graphics/SVG/1.1/DTD/svg11.dtd">
<!-- Uploaded to: SVG Repo, www.svgrepo.com, Transformed by: SVG Repo Mixer Tools -->
<svg fill="#6b2ae6" version="1.1" id="Layer_1" xmlns="http://www.w3.org/2000/svg" xmlns:xlink="http://www.w3.org/1999/xlink" viewBox="0 0 512 512" xml:space="preserve" width="80px" height="80px">
<g id="SVGRepo_bgCarrier" stroke-width="0"/>
<g id="SVGRepo_tracerCarrier" stroke-linecap="round" stroke-linejoin="round"/>
<g id="SVGRepo_iconCarrier"> <g> <g> <path d="M308.226,288.691c-12.547,3.265-25.702,4.841-39.256,4.841h-25.941c-13.554,0-26.71-1.576-39.257-4.841l-21.254,171.773 H329.48L308.226,288.691z"/> </g> </g> <g> <g> <polygon points="331.951,480.63 180.048,480.63 176.097,512 335.902,512 "/> </g> </g> <g> <g> <path d="M106.993,95.23v42.284c0,75.029,61.008,136.972,136.036,136.972h25.941c75.029,0,136.036-61.943,136.036-136.972V95.23 H106.993z"/> </g> </g> <g> <g> <rect x="106.993" y="44.814" width="298.013" height="39.212"/> </g> </g> <g> <g> <path d="M410.116,0H101.883c-6.242,0-11.301,5.152-11.301,11.394c0,1.341,0.245,2.477,0.674,3.67 c1.565,4.362,5.725,7.343,10.627,7.343h308.234c4.9,0,9.06-2.935,10.626-7.297c0.429-1.193,0.674-2.47,0.674-3.811 C421.418,5.057,416.357,0,410.116,0z"/> </g> </g> </g>
</svg>