<!DOCTYPE svg PUBLIC "-//W3C//DTD SVG 1.1//EN" "http://www.w3.org/Graphics/SVG/1.1/DTD/svg11.dtd">
<!-- Uploaded to: SVG Repo, www.svgrepo.com, Transformed by: SVG Repo Mixer Tools -->
<svg version="1.1" id="Uploaded to svgrepo.com" xmlns="http://www.w3.org/2000/svg" xmlns:xlink="http://www.w3.org/1999/xlink" width="80px" height="80px" viewBox="0 0 32 32" xml:space="preserve" fill="#6b2ae6" transform="rotate(45)">
<g id="SVGRepo_bgCarrier" stroke-width="0"/>
<g id="SVGRepo_tracerCarrier" stroke-linecap="round" stroke-linejoin="round"/>
<g id="SVGRepo_iconCarrier"> <style type="text/css"> .stone_een{fill:;} .st0{fill:;} </style> <path class="stone_een" d="M9.304,5C10.165,2.11,12.831,0,16,0s5.835,2.11,6.696,5H9.304z M22.696,10 c-0.341,1.149-0.962,2.176-1.795,2.994l-1.63,16.304C19.117,30.832,17.826,32,16.285,32h-0.57c-1.541,0-2.832-1.168-2.985-2.701 l-1.63-16.304C10.266,12.176,9.645,11.149,9.304,10H22.696z M17,17c0-0.552-0.448-1-1-1s-1,0.448-1,1c0,0.552,0.448,1,1,1 S17,17.552,17,17z M22.5,6h-13C8.672,6,8,6.672,8,7.5v0C8,8.328,8.672,9,9.5,9h13C23.328,9,24,8.328,24,7.5v0 C24,6.672,23.328,6,22.5,6z"/> </g>
</svg>